<?xml version="1.0" encoding="UTF-8" standalone="no"?>
<!DOCTYPE svg PUBLIC "-//W3C//DTD SVG 1.1//EN"
 "http://www.w3.org/Graphics/SVG/1.1/DTD/svg11.dtd">
<!-- Generated by graphviz version 2.47.0 (20210316.0004)
 -->
<!-- Title: dependencies Pages: 1 -->
<svg width="1755pt" height="284pt"
 viewBox="0.00 0.00 1755.00 284.00" xmlns="http://www.w3.org/2000/svg" xmlns:xlink="http://www.w3.org/1999/xlink">
<g id="graph0" class="graph" transform="scale(1 1) rotate(0) translate(4 280)">
<title>dependencies</title>
<polygon fill="white" stroke="transparent" points="-4,4 -4,-280 1751,-280 1751,4 -4,4"/>
<text text-anchor="start" x="852.51" y="-42.4" font-family="Times-12" font-weight="bold" font-size="14.00">Legend</text>
<polygon fill="#ffffb3" stroke="transparent" points="639.5,-10 639.5,-30 659.5,-30 659.5,-10 639.5,-10"/>
<text text-anchor="start" x="663.13" y="-15.4" font-family="Times-12" font-size="14.00"> &#160;Declarations</text>
<polygon fill="#8dd3c7" stroke="transparent" points="752.5,-10 752.5,-30 772.5,-30 772.5,-10 752.5,-10"/>
<text text-anchor="start" x="776.23" y="-15.4" font-family="Times-12" font-size="14.00"> &#160;Module</text>
<polygon fill="#80b1d3" stroke="transparent" points="838.5,-10 838.5,-30 858.5,-30 858.5,-10 838.5,-10"/>
<text text-anchor="start" x="862.28" y="-15.4" font-family="Times-12" font-size="14.00"> &#160;Bootstrap</text>
<polygon fill="#fdb462" stroke="transparent" points="935.5,-10 935.5,-30 955.5,-30 955.5,-10 935.5,-10"/>
<text text-anchor="start" x="959.17" y="-15.4" font-family="Times-12" font-size="14.00"> &#160;Providers</text>
<polygon fill="#fb8072" stroke="transparent" points="1031.5,-10 1031.5,-30 1051.5,-30 1051.5,-10 1031.5,-10"/>
<text text-anchor="start" x="1055.23" y="-15.4" font-family="Times-12" font-size="14.00"> &#160;Exports</text>
<g id="clust1" class="cluster">
<title>cluster_AppModule</title>
<polygon fill="none" stroke="black" stroke-dasharray="1,5" points="8,-70 8,-268 1739,-268 1739,-70 8,-70"/>
</g>
<g id="clust2" class="cluster">
<title>cluster_AppModule_declarations</title>
<polygon fill="none" stroke="black" points="728,-78 728,-130 1731,-130 1731,-78 728,-78"/>
</g>
<g id="clust9" class="cluster">
<title>cluster_AppModule_imports</title>
<polygon fill="none" stroke="black" points="16,-78 16,-130 720,-130 720,-78 16,-78"/>
</g>
<g id="clust11" class="cluster">
<title>cluster_AppModule_bootstrap</title>
<polygon fill="none" stroke="black" points="770,-208 770,-260 894,-260 894,-208 770,-208"/>
</g>
<!-- AppComponent -->
<g id="node1" class="node">
<title>AppComponent</title>
<polygon fill="#ffffb3" stroke="black" points="1722.94,-122 1617.06,-122 1617.06,-86 1722.94,-86 1722.94,-122"/>
<text text-anchor="middle" x="1670" y="-99.8" font-family="Times,serif" font-size="14.00">AppComponent</text>
</g>
<!-- AppModule -->
<g id="node7" class="node">
<title>AppModule</title>
<polygon fill="#8dd3c7" stroke="black" points="873.66,-187 870.66,-191 849.66,-191 846.66,-187 790.34,-187 790.34,-151 873.66,-151 873.66,-187"/>
<text text-anchor="middle" x="832" y="-164.8" font-family="Times,serif" font-size="14.00">AppModule</text>
</g>
<!-- AppComponent&#45;&gt;AppModule -->
<g id="edge1" class="edge">
<title>AppComponent&#45;&gt;AppModule</title>
<path fill="none" stroke="black" d="M1670,-122.25C1670,-145.02 1670,-181 1670,-181 1670,-181 883.84,-181 883.84,-181"/>
<polygon fill="black" stroke="black" points="883.84,-177.5 873.84,-181 883.84,-184.5 883.84,-177.5"/>
</g>
<!-- BreakLinesPipe -->
<g id="node2" class="node">
<title>BreakLinesPipe</title>
<polygon fill="#ffffb3" stroke="black" points="1599.92,-122 1494.08,-122 1494.08,-86 1599.92,-86 1599.92,-122"/>
<text text-anchor="middle" x="1547" y="-99.8" font-family="Times,serif" font-size="14.00">BreakLinesPipe</text>
</g>
<!-- BreakLinesPipe&#45;&gt;AppModule -->
<g id="edge2" class="edge">
<title>BreakLinesPipe&#45;&gt;AppModule</title>
<path fill="none" stroke="black" d="M1547,-122.28C1547,-143.32 1547,-175 1547,-175 1547,-175 883.79,-175 883.79,-175"/>
<polygon fill="black" stroke="black" points="883.79,-171.5 873.79,-175 883.79,-178.5 883.79,-171.5"/>
</g>
<!-- FrequencyMatrixCalculatorComponent -->
<g id="node3" class="node">
<title>FrequencyMatrixCalculatorComponent</title>
<polygon fill="#ffffb3" stroke="black" points="1476.33,-122 1239.67,-122 1239.67,-86 1476.33,-86 1476.33,-122"/>
<text text-anchor="middle" x="1358" y="-99.8" font-family="Times,serif" font-size="14.00">FrequencyMatrixCalculatorComponent</text>
</g>
<!-- FrequencyMatrixCalculatorComponent&#45;&gt;AppModule -->
<g id="edge3" class="edge">
<title>FrequencyMatrixCalculatorComponent&#45;&gt;AppModule</title>
<path fill="none" stroke="black" d="M1358,-122.11C1358,-141.34 1358,-169 1358,-169 1358,-169 883.71,-169 883.71,-169"/>
<polygon fill="black" stroke="black" points="883.71,-165.5 873.71,-169 883.71,-172.5 883.71,-165.5"/>
</g>
<!-- HomeComponent -->
<g id="node4" class="node">
<title>HomeComponent</title>
<polygon fill="#ffffb3" stroke="black" points="1221.55,-122 1106.45,-122 1106.45,-86 1221.55,-86 1221.55,-122"/>
<text text-anchor="middle" x="1164" y="-99.8" font-family="Times,serif" font-size="14.00">HomeComponent</text>
</g>
<!-- HomeComponent&#45;&gt;AppModule -->
<g id="edge4" class="edge">
<title>HomeComponent&#45;&gt;AppModule</title>
<path fill="none" stroke="black" d="M1164,-122.02C1164,-139.37 1164,-163 1164,-163 1164,-163 883.71,-163 883.71,-163"/>
<polygon fill="black" stroke="black" points="883.71,-159.5 873.71,-163 883.71,-166.5 883.71,-159.5"/>
</g>
<!-- InfoDialogComponent -->
<g id="node5" class="node">
<title>InfoDialogComponent</title>
<polygon fill="#ffffb3" stroke="black" points="1088.26,-122 945.74,-122 945.74,-86 1088.26,-86 1088.26,-122"/>
<text text-anchor="middle" x="1017" y="-99.8" font-family="Times,serif" font-size="14.00">InfoDialogComponent</text>
</g>
<!-- InfoDialogComponent&#45;&gt;AppModule -->
<g id="edge5" class="edge">
<title>InfoDialogComponent&#45;&gt;AppModule</title>
<path fill="none" stroke="black" d="M1017,-122.24C1017,-137.57 1017,-157 1017,-157 1017,-157 883.98,-157 883.98,-157"/>
<polygon fill="black" stroke="black" points="883.98,-153.5 873.98,-157 883.98,-160.5 883.98,-153.5"/>
</g>
<!-- PrositeMotifPatternComponent -->
<g id="node6" class="node">
<title>PrositeMotifPatternComponent</title>
<polygon fill="#ffffb3" stroke="black" points="927.76,-122 736.24,-122 736.24,-86 927.76,-86 927.76,-122"/>
<text text-anchor="middle" x="832" y="-99.8" font-family="Times,serif" font-size="14.00">PrositeMotifPatternComponent</text>
</g>
<!-- PrositeMotifPatternComponent&#45;&gt;AppModule -->
<g id="edge6" class="edge">
<title>PrositeMotifPatternComponent&#45;&gt;AppModule</title>
<path fill="none" stroke="black" d="M832,-122.11C832,-122.11 832,-140.99 832,-140.99"/>
<polygon fill="black" stroke="black" points="828.5,-140.99 832,-150.99 835.5,-140.99 828.5,-140.99"/>
</g>
<!-- AppComponent  -->
<g id="node13" class="node">
<title>AppComponent </title>
<polygon fill="#80b1d3" stroke="black" points="886.44,-252 777.56,-252 777.56,-216 886.44,-216 886.44,-252"/>
<text text-anchor="middle" x="832" y="-229.8" font-family="Times,serif" font-size="14.00">AppComponent </text>
</g>
<!-- AppModule&#45;&gt;AppComponent  -->
<g id="edge12" class="edge">
<title>AppModule&#45;&gt;AppComponent </title>
<path fill="none" stroke="black" stroke-dasharray="1,5" d="M832,-187.11C832,-187.11 832,-205.99 832,-205.99"/>
<polygon fill="black" stroke="black" points="828.5,-205.99 832,-215.99 835.5,-205.99 828.5,-205.99"/>
</g>
<!-- AppFormModule -->
<g id="node8" class="node">
<title>AppFormModule</title>
<polygon fill="#8dd3c7" stroke="black" points="711.99,-122 708.99,-126 687.99,-126 684.99,-122 598.01,-122 598.01,-86 711.99,-86 711.99,-122"/>
<text text-anchor="middle" x="655" y="-99.8" font-family="Times,serif" font-size="14.00">AppFormModule</text>
</g>
<!-- AppFormModule&#45;&gt;AppModule -->
<g id="edge7" class="edge">
<title>AppFormModule&#45;&gt;AppModule</title>
<path fill="none" stroke="black" d="M655,-122.24C655,-137.57 655,-157 655,-157 655,-157 780.05,-157 780.05,-157"/>
<polygon fill="black" stroke="black" points="780.05,-160.5 790.05,-157 780.05,-153.5 780.05,-160.5"/>
</g>
<!-- AppIconsModule -->
<g id="node9" class="node">
<title>AppIconsModule</title>
<polygon fill="#8dd3c7" stroke="black" points="579.98,-122 576.98,-126 555.98,-126 552.98,-122 466.02,-122 466.02,-86 579.98,-86 579.98,-122"/>
<text text-anchor="middle" x="523" y="-99.8" font-family="Times,serif" font-size="14.00">AppIconsModule</text>
</g>
<!-- AppIconsModule&#45;&gt;AppModule -->
<g id="edge8" class="edge">
<title>AppIconsModule&#45;&gt;AppModule</title>
<path fill="none" stroke="black" d="M523,-122.02C523,-139.37 523,-163 523,-163 523,-163 780.33,-163 780.33,-163"/>
<polygon fill="black" stroke="black" points="780.33,-166.5 790.33,-163 780.33,-159.5 780.33,-166.5"/>
</g>
<!-- AppMaterialModule -->
<g id="node10" class="node">
<title>AppMaterialModule</title>
<polygon fill="#8dd3c7" stroke="black" points="447.58,-122 444.58,-126 423.58,-126 420.58,-122 316.42,-122 316.42,-86 447.58,-86 447.58,-122"/>
<text text-anchor="middle" x="382" y="-99.8" font-family="Times,serif" font-size="14.00">AppMaterialModule</text>
</g>
<!-- AppMaterialModule&#45;&gt;AppModule -->
<g id="edge9" class="edge">
<title>AppMaterialModule&#45;&gt;AppModule</title>
<path fill="none" stroke="black" d="M382,-122.11C382,-141.34 382,-169 382,-169 382,-169 780.07,-169 780.07,-169"/>
<polygon fill="black" stroke="black" points="780.07,-172.5 790.07,-169 780.07,-165.5 780.07,-172.5"/>
</g>
<!-- AppRoutingModule -->
<g id="node11" class="node">
<title>AppRoutingModule</title>
<polygon fill="#8dd3c7" stroke="black" points="298.27,-122 295.27,-126 274.27,-126 271.27,-122 169.73,-122 169.73,-86 298.27,-86 298.27,-122"/>
<text text-anchor="middle" x="234" y="-99.8" font-family="Times,serif" font-size="14.00">AppRoutingModule</text>
</g>
<!-- AppRoutingModule&#45;&gt;AppModule -->
<g id="edge10" class="edge">
<title>AppRoutingModule&#45;&gt;AppModule</title>
<path fill="none" stroke="black" d="M234,-122.28C234,-143.32 234,-175 234,-175 234,-175 779.95,-175 779.95,-175"/>
<polygon fill="black" stroke="black" points="779.95,-178.5 789.95,-175 779.95,-171.5 779.95,-178.5"/>
</g>
<!-- NgOptimizedImage -->
<g id="node12" class="node">
<title>NgOptimizedImage</title>
<polygon fill="#8dd3c7" stroke="black" points="151.69,-122 148.69,-126 127.69,-126 124.69,-122 24.31,-122 24.31,-86 151.69,-86 151.69,-122"/>
<text text-anchor="middle" x="88" y="-99.8" font-family="Times,serif" font-size="14.00">NgOptimizedImage</text>
</g>
<!-- NgOptimizedImage&#45;&gt;AppModule -->
<g id="edge11" class="edge">
<title>NgOptimizedImage&#45;&gt;AppModule</title>
<path fill="none" stroke="black" d="M88,-122.25C88,-145.02 88,-181 88,-181 88,-181 780.14,-181 780.14,-181"/>
<polygon fill="black" stroke="black" points="780.14,-184.5 790.14,-181 780.14,-177.5 780.14,-184.5"/>
</g>
</g>
</svg>
