<?xml version="1.0" encoding="UTF-8" standalone="no"?>
<!DOCTYPE svg PUBLIC "-//W3C//DTD SVG 1.1//EN"
 "http://www.w3.org/Graphics/SVG/1.1/DTD/svg11.dtd">
<!-- Generated by graphviz version 2.47.0 (20210316.0004)
 -->
<!-- Title: dependencies Pages: 1 -->
<svg width="1899pt" height="284pt"
 viewBox="0.00 0.00 1899.00 284.00" xmlns="http://www.w3.org/2000/svg" xmlns:xlink="http://www.w3.org/1999/xlink">
<g id="graph0" class="graph" transform="scale(1 1) rotate(0) translate(4 280)">
<title>dependencies</title>
<polygon fill="white" stroke="transparent" points="-4,4 -4,-280 1895,-280 1895,4 -4,4"/>
<text text-anchor="start" x="924.51" y="-42.4" font-family="Times-12" font-weight="bold" font-size="14.00">Legend</text>
<polygon fill="#ffffb3" stroke="transparent" points="711.5,-10 711.5,-30 731.5,-30 731.5,-10 711.5,-10"/>
<text text-anchor="start" x="735.13" y="-15.4" font-family="Times-12" font-size="14.00"> &#160;Declarations</text>
<polygon fill="#8dd3c7" stroke="transparent" points="824.5,-10 824.5,-30 844.5,-30 844.5,-10 824.5,-10"/>
<text text-anchor="start" x="848.23" y="-15.4" font-family="Times-12" font-size="14.00"> &#160;Module</text>
<polygon fill="#80b1d3" stroke="transparent" points="910.5,-10 910.5,-30 930.5,-30 930.5,-10 910.5,-10"/>
<text text-anchor="start" x="934.28" y="-15.4" font-family="Times-12" font-size="14.00"> &#160;Bootstrap</text>
<polygon fill="#fdb462" stroke="transparent" points="1007.5,-10 1007.5,-30 1027.5,-30 1027.5,-10 1007.5,-10"/>
<text text-anchor="start" x="1031.17" y="-15.4" font-family="Times-12" font-size="14.00"> &#160;Providers</text>
<polygon fill="#fb8072" stroke="transparent" points="1103.5,-10 1103.5,-30 1123.5,-30 1123.5,-10 1103.5,-10"/>
<text text-anchor="start" x="1127.23" y="-15.4" font-family="Times-12" font-size="14.00"> &#160;Exports</text>
<g id="clust19" class="cluster">
<title>cluster_AppModule</title>
<polygon fill="none" stroke="black" stroke-dasharray="1,5" points="8,-70 8,-268 1739,-268 1739,-70 8,-70"/>
</g>
<g id="clust20" class="cluster">
<title>cluster_AppModule_declarations</title>
<polygon fill="none" stroke="black" points="728,-78 728,-130 1731,-130 1731,-78 728,-78"/>
</g>
<g id="clust27" class="cluster">
<title>cluster_AppModule_imports</title>
<polygon fill="none" stroke="black" points="16,-78 16,-130 720,-130 720,-78 16,-78"/>
</g>
<g id="clust29" class="cluster">
<title>cluster_AppModule_bootstrap</title>
<polygon fill="none" stroke="black" points="1281,-208 1281,-260 1405,-260 1405,-208 1281,-208"/>
</g>
<g id="clust37" class="cluster">
<title>cluster_AppServerModule</title>
<polygon fill="none" stroke="black" stroke-dasharray="1,5" points="1747,-208 1747,-260 1883,-260 1883,-208 1747,-208"/>
</g>
<!-- AppComponent -->
<g id="node1" class="node">
<title>AppComponent</title>
<polygon fill="#ffffb3" stroke="black" points="1722.94,-122 1617.06,-122 1617.06,-86 1722.94,-86 1722.94,-122"/>
<text text-anchor="middle" x="1670" y="-99.8" font-family="Times,serif" font-size="14.00">AppComponent</text>
</g>
<!-- AppModule -->
<g id="node7" class="node">
<title>AppModule</title>
<polygon fill="#8dd3c7" stroke="black" points="1058.66,-187 1055.66,-191 1034.66,-191 1031.66,-187 975.34,-187 975.34,-151 1058.66,-151 1058.66,-187"/>
<text text-anchor="middle" x="1017" y="-164.8" font-family="Times,serif" font-size="14.00">AppModule</text>
</g>
<!-- AppComponent&#45;&gt;AppModule -->
<g id="edge1" class="edge">
<title>AppComponent&#45;&gt;AppModule</title>
<path fill="none" stroke="black" d="M1670,-122.28C1670,-143.32 1670,-175 1670,-175 1670,-175 1068.84,-175 1068.84,-175"/>
<polygon fill="black" stroke="black" points="1068.84,-171.5 1058.84,-175 1068.84,-178.5 1068.84,-171.5"/>
</g>
<!-- BreakLinesPipe -->
<g id="node2" class="node">
<title>BreakLinesPipe</title>
<polygon fill="#ffffb3" stroke="black" points="1599.92,-122 1494.08,-122 1494.08,-86 1599.92,-86 1599.92,-122"/>
<text text-anchor="middle" x="1547" y="-99.8" font-family="Times,serif" font-size="14.00">BreakLinesPipe</text>
</g>
<!-- BreakLinesPipe&#45;&gt;AppModule -->
<g id="edge2" class="edge">
<title>BreakLinesPipe&#45;&gt;AppModule</title>
<path fill="none" stroke="black" d="M1547,-122.11C1547,-141.34 1547,-169 1547,-169 1547,-169 1069.03,-169 1069.03,-169"/>
<polygon fill="black" stroke="black" points="1069.03,-165.5 1059.03,-169 1069.03,-172.5 1069.03,-165.5"/>
</g>
<!-- FrequencyMatrixCalculatorComponent -->
<g id="node3" class="node">
<title>FrequencyMatrixCalculatorComponent</title>
<polygon fill="#ffffb3" stroke="black" points="1476.33,-122 1239.67,-122 1239.67,-86 1476.33,-86 1476.33,-122"/>
<text text-anchor="middle" x="1358" y="-99.8" font-family="Times,serif" font-size="14.00">FrequencyMatrixCalculatorComponent</text>
</g>
<!-- FrequencyMatrixCalculatorComponent&#45;&gt;AppModule -->
<g id="edge3" class="edge">
<title>FrequencyMatrixCalculatorComponent&#45;&gt;AppModule</title>
<path fill="none" stroke="black" d="M1264.06,-122.02C1264.06,-139.37 1264.06,-163 1264.06,-163 1264.06,-163 1068.91,-163 1068.91,-163"/>
<polygon fill="black" stroke="black" points="1068.91,-159.5 1058.91,-163 1068.91,-166.5 1068.91,-159.5"/>
</g>
<!-- HomeComponent -->
<g id="node4" class="node">
<title>HomeComponent</title>
<polygon fill="#ffffb3" stroke="black" points="1221.55,-122 1106.45,-122 1106.45,-86 1221.55,-86 1221.55,-122"/>
<text text-anchor="middle" x="1164" y="-99.8" font-family="Times,serif" font-size="14.00">HomeComponent</text>
</g>
<!-- HomeComponent&#45;&gt;AppModule -->
<g id="edge4" class="edge">
<title>HomeComponent&#45;&gt;AppModule</title>
<path fill="none" stroke="black" d="M1164,-122.24C1164,-137.57 1164,-157 1164,-157 1164,-157 1068.73,-157 1068.73,-157"/>
<polygon fill="black" stroke="black" points="1068.73,-153.5 1058.73,-157 1068.73,-160.5 1068.73,-153.5"/>
</g>
<!-- InfoDialogComponent -->
<g id="node5" class="node">
<title>InfoDialogComponent</title>
<polygon fill="#ffffb3" stroke="black" points="1088.26,-122 945.74,-122 945.74,-86 1088.26,-86 1088.26,-122"/>
<text text-anchor="middle" x="1017" y="-99.8" font-family="Times,serif" font-size="14.00">InfoDialogComponent</text>
</g>
<!-- InfoDialogComponent&#45;&gt;AppModule -->
<g id="edge5" class="edge">
<title>InfoDialogComponent&#45;&gt;AppModule</title>
<path fill="none" stroke="black" d="M1017,-122.11C1017,-122.11 1017,-140.99 1017,-140.99"/>
<polygon fill="black" stroke="black" points="1013.5,-140.99 1017,-150.99 1020.5,-140.99 1013.5,-140.99"/>
</g>
<!-- PrositeMotifPatternComponent -->
<g id="node6" class="node">
<title>PrositeMotifPatternComponent</title>
<polygon fill="#ffffb3" stroke="black" points="927.76,-122 736.24,-122 736.24,-86 927.76,-86 927.76,-122"/>
<text text-anchor="middle" x="832" y="-99.8" font-family="Times,serif" font-size="14.00">PrositeMotifPatternComponent</text>
</g>
<!-- PrositeMotifPatternComponent&#45;&gt;AppModule -->
<g id="edge6" class="edge">
<title>PrositeMotifPatternComponent&#45;&gt;AppModule</title>
<path fill="none" stroke="black" d="M832,-122.24C832,-137.57 832,-157 832,-157 832,-157 965.02,-157 965.02,-157"/>
<polygon fill="black" stroke="black" points="965.02,-160.5 975.02,-157 965.02,-153.5 965.02,-160.5"/>
</g>
<!-- AppComponent  -->
<g id="node13" class="node">
<title>AppComponent </title>
<polygon fill="#80b1d3" stroke="black" points="1397.44,-252 1288.56,-252 1288.56,-216 1397.44,-216 1397.44,-252"/>
<text text-anchor="middle" x="1343" y="-229.8" font-family="Times,serif" font-size="14.00">AppComponent </text>
</g>
<!-- AppModule&#45;&gt;AppComponent  -->
<g id="edge12" class="edge">
<title>AppModule&#45;&gt;AppComponent </title>
<path fill="none" stroke="black" stroke-dasharray="1,5" d="M1017,-187.11C1017,-206.34 1017,-234 1017,-234 1017,-234 1278.43,-234 1278.43,-234"/>
<polygon fill="black" stroke="black" points="1278.43,-237.5 1288.43,-234 1278.43,-230.5 1278.43,-237.5"/>
</g>
<!-- AppServerModule -->
<g id="node14" class="node">
<title>AppServerModule</title>
<polygon fill="#8dd3c7" stroke="black" points="1875.19,-252 1872.19,-256 1851.19,-256 1848.19,-252 1754.81,-252 1754.81,-216 1875.19,-216 1875.19,-252"/>
<text text-anchor="middle" x="1815" y="-229.8" font-family="Times,serif" font-size="14.00">AppServerModule</text>
</g>
<!-- AppModule&#45;&gt;AppServerModule -->
<g id="edge13" class="edge">
<title>AppModule&#45;&gt;AppServerModule</title>
<path fill="none" stroke="black" d="M1058.78,-181C1222.97,-181 1815,-181 1815,-181 1815,-181 1815,-205.76 1815,-205.76"/>
<polygon fill="black" stroke="black" points="1811.5,-205.76 1815,-215.76 1818.5,-205.76 1811.5,-205.76"/>
</g>
<!-- AppFormModule -->
<g id="node8" class="node">
<title>AppFormModule</title>
<polygon fill="#8dd3c7" stroke="black" points="711.99,-122 708.99,-126 687.99,-126 684.99,-122 598.01,-122 598.01,-86 711.99,-86 711.99,-122"/>
<text text-anchor="middle" x="655" y="-99.8" font-family="Times,serif" font-size="14.00">AppFormModule</text>
</g>
<!-- AppFormModule&#45;&gt;AppModule -->
<g id="edge7" class="edge">
<title>AppFormModule&#45;&gt;AppModule</title>
<path fill="none" stroke="black" d="M655,-122.03C655,-139.06 655,-162 655,-162 655,-162 965.12,-162 965.12,-162"/>
<polygon fill="black" stroke="black" points="965.12,-165.5 975.12,-162 965.12,-158.5 965.12,-165.5"/>
</g>
<!-- AppIconsModule -->
<g id="node9" class="node">
<title>AppIconsModule</title>
<polygon fill="#8dd3c7" stroke="black" points="579.98,-122 576.98,-126 555.98,-126 552.98,-122 466.02,-122 466.02,-86 579.98,-86 579.98,-122"/>
<text text-anchor="middle" x="523" y="-99.8" font-family="Times,serif" font-size="14.00">AppIconsModule</text>
</g>
<!-- AppIconsModule&#45;&gt;AppModule -->
<g id="edge8" class="edge">
<title>AppIconsModule&#45;&gt;AppModule</title>
<path fill="none" stroke="black" d="M523,-122.22C523,-140.83 523,-167 523,-167 523,-167 965.31,-167 965.31,-167"/>
<polygon fill="black" stroke="black" points="965.31,-170.5 975.31,-167 965.31,-163.5 965.31,-170.5"/>
</g>
<!-- AppMaterialModule -->
<g id="node10" class="node">
<title>AppMaterialModule</title>
<polygon fill="#8dd3c7" stroke="black" points="447.58,-122 444.58,-126 423.58,-126 420.58,-122 316.42,-122 316.42,-86 447.58,-86 447.58,-122"/>
<text text-anchor="middle" x="382" y="-99.8" font-family="Times,serif" font-size="14.00">AppMaterialModule</text>
</g>
<!-- AppMaterialModule&#45;&gt;AppModule -->
<g id="edge9" class="edge">
<title>AppMaterialModule&#45;&gt;AppModule</title>
<path fill="none" stroke="black" d="M382,-122.22C382,-142.37 382,-172 382,-172 382,-172 965.34,-172 965.34,-172"/>
<polygon fill="black" stroke="black" points="965.34,-175.5 975.34,-172 965.34,-168.5 965.34,-175.5"/>
</g>
<!-- AppRoutingModule -->
<g id="node11" class="node">
<title>AppRoutingModule</title>
<polygon fill="#8dd3c7" stroke="black" points="298.27,-122 295.27,-126 274.27,-126 271.27,-122 169.73,-122 169.73,-86 298.27,-86 298.27,-122"/>
<text text-anchor="middle" x="234" y="-99.8" font-family="Times,serif" font-size="14.00">AppRoutingModule</text>
</g>
<!-- AppRoutingModule&#45;&gt;AppModule -->
<g id="edge10" class="edge">
<title>AppRoutingModule&#45;&gt;AppModule</title>
<path fill="none" stroke="black" d="M234,-122.04C234,-143.66 234,-177 234,-177 234,-177 965.18,-177 965.18,-177"/>
<polygon fill="black" stroke="black" points="965.18,-180.5 975.18,-177 965.18,-173.5 965.18,-180.5"/>
</g>
<!-- NgOptimizedImage -->
<g id="node12" class="node">
<title>NgOptimizedImage</title>
<polygon fill="#8dd3c7" stroke="black" points="151.69,-122 148.69,-126 127.69,-126 124.69,-122 24.31,-122 24.31,-86 151.69,-86 151.69,-122"/>
<text text-anchor="middle" x="88" y="-99.8" font-family="Times,serif" font-size="14.00">NgOptimizedImage</text>
</g>
<!-- NgOptimizedImage&#45;&gt;AppModule -->
<g id="edge11" class="edge">
<title>NgOptimizedImage&#45;&gt;AppModule</title>
<path fill="none" stroke="black" d="M88,-122.09C88,-145.13 88,-182 88,-182 88,-182 965.28,-182 965.28,-182"/>
<polygon fill="black" stroke="black" points="965.28,-185.5 975.28,-182 965.28,-178.5 965.28,-185.5"/>
</g>
<!-- AppServerModule&#45;&gt;AppComponent  -->
<g id="edge14" class="edge">
<title>AppServerModule&#45;&gt;AppComponent </title>
<path fill="none" stroke="black" stroke-dasharray="1,5" d="M1754.74,-234C1754.74,-234 1407.78,-234 1407.78,-234"/>
<polygon fill="black" stroke="black" points="1407.78,-230.5 1397.78,-234 1407.78,-237.5 1407.78,-230.5"/>
</g>
</g>
</svg>
